<?xml version="1.0" encoding="utf-8"?>
<!-- Generator: Adobe Illustrator 26.5.3, SVG Export Plug-In . SVG Version: 6.00 Build 0)  -->
<svg version="1.1" id="레이어_1" xmlns="http://www.w3.org/2000/svg" xmlns:xlink="http://www.w3.org/1999/xlink" x="0px"
	 y="0px" viewBox="0 0 275 75" style="enable-background:new 0 0 275 75;" xml:space="preserve">
<style type="text/css">
	.st0{fill:#FFFFFF;}
</style>
<g>
	<g>
		<path class="st0" d="M1,42.2v7.6h28.3v24.6H39V49.8h28.6v-7.6C67.6,42.2,1,42.2,1,42.2z M9.7,4.4v29.1h50V26H19.4V12.2h40V4.4H9.7
			z"/>
		<g>
			<path class="st0" d="M128.6,21.7h10.5v8h-10.5v24.3h-9.7V0.6h9.7V21.7z M81.7,72.5V48.6h9.7v16.3h39.1v7.6L81.7,72.5L81.7,72.5z
				 M108.3,43c-5.5-2.1-13.3-8.9-16.5-15.6c-2.2,7.4-9.9,15.1-16.9,17.7l-5.8-7.6c10.7-3.9,17.6-13.7,17.6-24.9V4.8h9.9v7.3
				c0,11.4,8.5,20.6,17.1,23.4L108.3,43z"/>
			<path class="st0" d="M192.2,54.1V30.3h-13.6v-7.9h13.6V0.6h9.7v53.5H192.2z M153.3,72.4V49.1h9.8v15.6h40.4v7.7H153.3z
				 M145.6,45.8l-4.8-7.7c12.6-2.4,25.1-10.7,27.5-23.8h-23.9v-8h34.3C178.2,27.4,164.8,40.2,145.6,45.8"/>
			<path class="st0" d="M262.1,38V21.7h-12.6v-7.8h12.6V0.6h9.7V38H262.1z M223.3,73.8V54.2h38.8v-4.8h-39.2v-7.7h48.9v19.6H233V66
				h41v7.8L223.3,73.8L223.3,73.8z M249.3,37.3c-5.6-2.2-13.2-7.8-16.4-14.6c-2.2,7.5-10.3,14.1-17.2,16.5l-5.5-7.2
				c10.6-3.9,17.5-12.4,17.5-23.6V3h10.1v5c0,11.3,8.4,19.4,16.9,22.2L249.3,37.3z"/>
		</g>
	</g>
</g>
</svg>
