<?xml version="1.0" encoding="utf-8"?>
<!-- Generator: Adobe Illustrator 26.5.3, SVG Export Plug-In . SVG Version: 6.00 Build 0)  -->
<svg version="1.1" id="Layer_1" xmlns="http://www.w3.org/2000/svg" xmlns:xlink="http://www.w3.org/1999/xlink" x="0px" y="0px"
	 viewBox="0 0 170 60" style="enable-background:new 0 0 170 60;" xml:space="preserve">
<style type="text/css">
	.st0{fill:#243E8A;}
	.st1{fill:#1C4592;}
	.st2{fill:#FFFFFF;}
</style>
<g>
	<g>
		<g>
			<path class="st0" d="M76.079,33.071v2.593h9.638v8.37h3.299v-8.37h9.751v-2.593H76.079z M79.037,20.22v9.92H96.06v-2.594H82.335
				v-4.678h13.612V20.22H79.037z"/>
			<g>
				<path class="st0" d="M119.537,26.109h3.578v2.735h-3.578v8.285h-3.297V18.924h3.297V26.109z M103.559,43.386v-8.144h3.297v5.55
					h13.301v2.594H103.559z M112.633,33.352c-1.888-0.732-4.537-3.015-5.609-5.326c-0.761,2.535-3.381,5.13-5.748,6.031
					l-1.972-2.593c3.633-1.326,6.001-4.678,6.001-8.482v-2.651h3.382v2.481c0,3.888,2.901,7.016,5.833,7.976L112.633,33.352z"/>
				<path class="st0" d="M141.183,37.129v-8.088h-4.623v-2.706h4.623v-7.411h3.297v18.205H141.183z M127.937,43.355v-7.919h3.326
					v5.3h13.752v2.619H127.937z M125.315,34.31l-1.633-2.621c4.284-0.817,8.539-3.635,9.355-8.114h-8.145V20.84h11.697
					C136.419,28.054,131.881,32.394,125.315,34.31"/>
				<path class="st0" d="M164.997,31.634v-5.553h-4.283v-2.648h4.283v-4.51h3.298v12.71H164.997z M151.781,43.837v-6.679h13.216
					v-1.634h-13.358v-2.621h16.656v6.678h-13.189v1.607h13.95v2.65H151.781z M160.659,31.408c-1.918-0.733-4.51-2.65-5.582-4.96
					c-0.761,2.564-3.494,4.818-5.86,5.609l-1.89-2.453c3.608-1.324,5.975-4.226,5.975-8.032v-1.86h3.438v1.692
					c0,3.861,2.847,6.623,5.75,7.553L160.659,31.408z"/>
			</g>
		</g>
		<g>
			<g>
				<polygon class="st1" points="18.547,2.921 7.789,21.846 7.9,21.431 13.241,1.5 18.44,2.89 				"/>
				<path class="st1" d="M38.928,29.491c-1.889-0.092-3.698,0.568-5.068,1.786c-0.257-4.796-2.365-9.292-6.04-11.887l1.343-7.053
					h24.508l-0.399-0.108L25.366,4.748l-0.107-0.027l-7.391,13.078c3.164-0.073,6.319,0.925,8.881,2.918
					c0.78,0.606,1.486,1.294,2.119,2.054c2.054,2.465,3.187,5.571,3.187,8.816c0,0.733-0.058,1.455-0.17,2.165
					c-0.127,0.791-0.349,1.578-0.403,2.373c-0.1,1.524,0.291,3.068,1.163,4.389c1.363,2.061,3.686,3.256,6.124,3.191h0.019
					l0.062-0.004c1.755-0.069,3.487-0.764,4.803-2.081c1.34-1.34,2.081-3.133,2.081-5.026c0-1.897-0.74-3.69-2.081-5.03
					C42.36,30.27,40.655,29.579,38.928,29.491z M41.366,38.963h-0.611v-2.22c0-0.684-0.203-0.971-0.687-0.971
					c-0.373,0-0.63,0.188-0.995,0.557v2.635h-0.61v-5.322h0.61v1.459l-0.019,0.749c0.334-0.338,0.706-0.611,1.202-0.611
					c0.76,0,1.109,0.495,1.109,1.424V38.963z M35.507,35.365l0.572-0.031l0.073-1.018h0.507v1.018h0.983v0.492h-0.983v2.027
					c0,0.446,0.142,0.703,0.561,0.703c0.127,0,0.295-0.05,0.415-0.096l0.122,0.457c-0.207,0.065-0.45,0.134-0.672,0.134
					c-0.775,0-1.037-0.484-1.037-1.214v-2.011h-0.541V35.365z"/>
				<path class="st2" d="M36.659,34.317v1.018h0.983v0.492h-0.983v2.027c0,0.446,0.142,0.703,0.561,0.703
					c0.127,0,0.295-0.05,0.415-0.096l0.122,0.457c-0.207,0.065-0.45,0.134-0.672,0.134c-0.775,0-1.037-0.484-1.037-1.214v-2.011
					h-0.541v-0.461l0.572-0.031l0.073-1.018H36.659z"/>
				<path class="st2" d="M39.073,35.101l-0.019,0.749c0.334-0.338,0.706-0.611,1.202-0.611c0.76,0,1.109,0.495,1.109,1.424v2.301
					h-0.611v-2.22c0-0.684-0.203-0.971-0.687-0.971c-0.373,0-0.63,0.188-0.995,0.557v2.635h-0.61v-5.322h0.61V35.101z"/>
				<path class="st1" d="M49.191,45.456l-0.065,0.242L46.28,56.314L1.753,44.381l2.719-10.152l0.065-0.238
					c0.484,2.768,1.813,5.333,3.828,7.349c0.169,0.169,0.346,0.334,0.522,0.491c4.411,3.978,10.835,4.615,15.892,1.908
					c-1.179-2.193-1.67-4.531-1.751-6.873c-2.807,2.53-7.241,2.446-9.941-0.25c-1.309-1.313-2.058-3.075-2.085-4.93
					c-0.015-1.255,0.296-2.507,0.922-3.598L12,27.962c0.115-0.196,0.242-0.388,0.377-0.572c0.215-0.292,0.453-0.572,0.71-0.83
					c2.78-2.78,7.426-2.78,10.205,0c1.34,1.34,2.081,3.133,2.081,5.026c0,0.925-0.227,1.67-0.384,2.553
					c-0.599,3.298,0.019,6.758,1.836,9.703c2.296,3.72,6.189,6.082,10.459,6.477c0.741,0.069,1.49,0.088,2.25,0.035
					c1.256-0.089,2.496-0.342,3.694-0.768c1.194-0.422,2.343-1.01,3.406-1.77c0.611-0.438,1.198-0.925,1.743-1.474
					C48.661,46.058,48.934,45.763,49.191,45.456z"/>
				<path class="st1" d="M56.272,19.016l-0.031,0.107L52.266,33.96l-0.062,0.234c-0.318-1.812-0.998-3.54-1.996-5.084
					c-0.522-0.81-1.133-1.574-1.831-2.269c-2.247-2.246-5.1-3.556-8.052-3.928c-2.162-0.277-4.388-0.057-6.439,0.683
					c0,0-0.004,0-0.011,0.004c-0.008,0-0.019,0.004-0.027,0.008c-0.023,0.008-0.05,0.019-0.062,0.023l0.898-4.615H56.272z"/>
				<path class="st2" d="M34.685,19.016l-0.898,4.615c0.012-0.004,0.039-0.015,0.062-0.023c0.008-0.004,0.019-0.008,0.027-0.008
					c0.007-0.004,0.011-0.004,0.011-0.004c2.051-0.741,4.278-0.96,6.439-0.683c2.952,0.372,5.805,1.682,8.052,3.928
					c0.699,0.695,1.309,1.459,1.831,2.269c0.998,1.543,1.678,3.271,1.996,5.084l-3.013,11.261c-0.257,0.307-0.53,0.603-0.814,0.887
					c-0.545,0.549-1.133,1.037-1.743,1.474c-1.063,0.76-2.212,1.348-3.406,1.77c-1.198,0.426-2.438,0.68-3.694,0.768
					c-0.76,0.054-1.509,0.034-2.25-0.035c-4.27-0.396-8.163-2.757-10.459-6.477c-1.817-2.945-2.434-6.405-1.836-9.703
					c0.158-0.883,0.384-1.628,0.384-2.553c0-1.893-0.741-3.686-2.081-5.026c-2.78-2.78-7.425-2.78-10.205,0
					c-0.257,0.257-0.496,0.537-0.71,0.83c-0.135,0.184-0.262,0.376-0.377,0.572l-0.076,0.127c-0.626,1.09-0.937,2.342-0.922,3.598
					c0.027,1.854,0.776,3.617,2.085,4.93c2.699,2.696,7.134,2.78,9.941,0.25c0.081,2.342,0.572,4.68,1.751,6.873
					c-5.057,2.707-11.481,2.07-15.892-1.908c-0.176-0.157-0.353-0.322-0.522-0.491c-2.016-2.016-3.344-4.581-3.828-7.349
					l3.253-12.145L18.547,2.921l6.712,1.801l-7.391,13.078c3.164-0.073,6.319,0.925,8.881,2.918c0.78,0.606,1.486,1.294,2.119,2.054
					c2.054,2.465,3.187,5.571,3.187,8.816c0,0.733-0.058,1.455-0.17,2.165c-0.127,0.791-0.349,1.578-0.403,2.373
					c-0.1,1.524,0.291,3.068,1.163,4.389c1.363,2.061,3.686,3.256,6.124,3.191h0.019l0.062-0.004
					c1.755-0.069,3.487-0.764,4.803-2.081c1.34-1.34,2.081-3.133,2.081-5.026c0-1.897-0.74-3.69-2.081-5.03
					c-1.294-1.294-2.999-1.985-4.727-2.073c-1.889-0.092-3.698,0.568-5.068,1.786c-0.257-4.796-2.365-9.292-6.04-11.887l1.343-7.053
					h24.508l4.097,1.098l-1.497,5.583H34.685z"/>
			</g>
			<g>
				<path class="st1" d="M2.857,55.154h-0.76l-1.041,3.237h0.657l0.23-0.829h1.049l0.227,0.829h0.679L2.857,55.154z M2.081,57.058
					l0.096-0.357c0.096-0.334,0.192-0.703,0.277-1.056h0.015c0.1,0.35,0.185,0.722,0.289,1.056l0.095,0.357H2.081z"/>
				<path class="st1" d="M6.144,55.154v1.29c0,0.369,0.05,0.799,0.084,1.133H6.205l-0.323-0.699l-0.941-1.724h-0.66v3.237h0.611
					v-1.298c0-0.372-0.046-0.779-0.076-1.129h0.019l0.33,0.695l0.937,1.732h0.657v-3.237H6.144z"/>
				<path class="st1" d="M9.423,55.154v1.29c0,0.369,0.049,0.799,0.084,1.133H9.484l-0.322-0.699l-0.941-1.724h-0.66v3.237h0.611
					v-1.298c0-0.372-0.046-0.779-0.077-1.129h0.023l0.326,0.695l0.937,1.732h0.657v-3.237H9.423z"/>
				<path class="st1" d="M10.839,55.154v3.237h0.649v-3.237H10.839z"/>
				<path class="st1" d="M13.961,55.154l-0.419,1.575c-0.103,0.361-0.176,0.683-0.276,1.048h-0.023
					c-0.104-0.365-0.169-0.687-0.273-1.048l-0.426-1.575h-0.679l0.991,3.237h0.768l0.995-3.237H13.961z"/>
				<path class="st1" d="M15.639,57.849v-0.868h1.137V56.44h-1.137v-0.749h1.34v-0.538H14.99v3.237h2.034v-0.541H15.639z"/>
				<path class="st1" d="M19.413,57.066c0.372-0.146,0.618-0.446,0.618-0.933c0-0.745-0.541-0.979-1.217-0.979h-1.129v3.237h0.645
					v-1.225h0.453l0.664,1.225h0.722L19.413,57.066z M18.753,56.655h-0.422v-0.991h0.422c0.414,0,0.641,0.119,0.641,0.469
					C19.394,56.479,19.167,56.655,18.753,56.655z"/>
				<path class="st1" d="M22.105,56.594l-0.423-0.18c-0.277-0.108-0.51-0.192-0.51-0.423c0-0.215,0.183-0.342,0.468-0.342
					c0.269,0,0.484,0.096,0.687,0.265l0.33-0.408c-0.262-0.264-0.642-0.415-1.018-0.415c-0.656,0-1.117,0.407-1.117,0.937
					c0,0.472,0.327,0.733,0.656,0.871l0.431,0.185c0.292,0.119,0.487,0.196,0.487,0.434c0,0.23-0.181,0.372-0.514,0.372
					c-0.288,0-0.592-0.142-0.826-0.357l-0.373,0.446c0.315,0.303,0.749,0.472,1.183,0.472c0.748,0,1.191-0.449,1.191-0.979
					C22.758,57.005,22.5,56.755,22.105,56.594z"/>
				<path class="st1" d="M24.715,55.154h-0.76l-1.041,3.237h0.657l0.23-0.829h1.049l0.23,0.829h0.676L24.715,55.154z M23.94,57.058
					l0.096-0.357c0.096-0.334,0.192-0.703,0.276-1.056h0.019c0.096,0.35,0.184,0.722,0.284,1.056l0.096,0.357H23.94z"/>
				<path class="st1" d="M27.868,57.066c0.372-0.146,0.618-0.446,0.618-0.933c0-0.745-0.538-0.979-1.218-0.979H26.14v3.237h0.649
					v-1.225h0.449l0.664,1.225h0.722L27.868,57.066z M27.207,56.655h-0.418v-0.991h0.418c0.415,0,0.645,0.119,0.645,0.469
					C27.853,56.479,27.622,56.655,27.207,56.655z"/>
				<path class="st1" d="M30.571,55.154l-0.326,0.787c-0.088,0.242-0.188,0.469-0.288,0.718h-0.015
					c-0.103-0.249-0.189-0.476-0.281-0.718l-0.326-0.787h-0.688l0.972,2.051v1.186h0.648v-1.186l0.976-2.051H30.571z"/>
			</g>
			<g>
				<path class="st1" d="M2.158,53.353v-2.227H1.766c-0.169,0.104-0.353,0.173-0.619,0.223v0.326h0.48v1.678H1.056v0.43h1.602v-0.43
					H2.158z"/>
				<path class="st1" d="M3.859,51.072c-0.457,0-0.837,0.342-0.837,0.891c0,0.561,0.319,0.837,0.761,0.837
					c0.184,0,0.41-0.111,0.545-0.292c-0.02,0.668-0.269,0.895-0.569,0.895c-0.157,0-0.323-0.085-0.418-0.188L3.064,53.53
					c0.158,0.161,0.399,0.303,0.73,0.303c0.526,0,1.018-0.434,1.018-1.44C4.812,51.468,4.362,51.072,3.859,51.072z M3.882,52.42
					c-0.23,0-0.376-0.146-0.376-0.457c0-0.33,0.161-0.492,0.361-0.492c0.223,0,0.407,0.18,0.453,0.664
					C4.192,52.343,4.028,52.42,3.882,52.42z"/>
				<path class="st1" d="M6.197,52.109c-0.172,0-0.403,0.108-0.545,0.284c0.023-0.665,0.273-0.895,0.579-0.895
					c0.155,0,0.316,0.085,0.408,0.192l0.281-0.315c-0.161-0.165-0.4-0.304-0.722-0.304c-0.534,0-1.025,0.426-1.025,1.417
					c0,0.937,0.45,1.344,0.957,1.344c0.45,0,0.833-0.342,0.833-0.887C6.962,52.374,6.642,52.109,6.197,52.109z M6.117,53.434
					c-0.223,0-0.403-0.188-0.454-0.672c0.13-0.204,0.292-0.281,0.434-0.281c0.23,0,0.376,0.146,0.376,0.465
					C6.473,53.269,6.312,53.434,6.117,53.434z"/>
				<path class="st1" d="M8.167,51.072c-0.546,0-0.903,0.449-0.903,1.371c0,0.914,0.357,1.39,0.903,1.39
					c0.538,0,0.895-0.476,0.895-1.39C9.062,51.525,8.705,51.072,8.167,51.072z M8.167,53.419c-0.231,0-0.403-0.23-0.403-0.975
					c0-0.745,0.172-0.96,0.403-0.96c0.227,0,0.396,0.215,0.396,0.96C8.563,53.188,8.394,53.419,8.167,53.419z"/>
				<path class="st1" d="M11.749,52.175c-0.089,0.153-0.185,0.234-0.299,0.234c-0.223,0-0.372-0.319-0.703-0.319
					c-0.2,0-0.399,0.112-0.587,0.407l0.276,0.207c0.088-0.157,0.187-0.238,0.299-0.238c0.226,0,0.372,0.319,0.706,0.319
					c0.195,0,0.399-0.111,0.583-0.403L11.749,52.175z"/>
				<path class="st1" d="M14.321,53.338c-0.122,0-0.299,0.015-0.43,0.027c0.484-0.472,0.883-0.991,0.883-1.471
					c0-0.495-0.334-0.822-0.837-0.822c-0.365,0-0.599,0.146-0.844,0.403l0.288,0.288c0.134-0.146,0.295-0.273,0.487-0.273
					c0.254,0,0.399,0.161,0.399,0.43c0,0.411-0.425,0.91-1.148,1.555v0.307h1.782v-0.445H14.321z"/>
				<path class="st1" d="M16.138,51.072c-0.541,0-0.902,0.449-0.902,1.371c0,0.914,0.361,1.39,0.902,1.39
					c0.537,0,0.898-0.476,0.898-1.39C17.036,51.525,16.675,51.072,16.138,51.072z M16.138,53.419c-0.231,0-0.403-0.23-0.403-0.975
					c0-0.745,0.173-0.96,0.403-0.96c0.226,0,0.398,0.215,0.398,0.96C16.537,53.188,16.364,53.419,16.138,53.419z"/>
				<path class="st1" d="M18.549,53.338c-0.119,0-0.296,0.015-0.43,0.027c0.483-0.472,0.882-0.991,0.882-1.471
					c0-0.495-0.334-0.822-0.836-0.822c-0.361,0-0.6,0.146-0.842,0.403l0.284,0.288c0.135-0.146,0.296-0.273,0.492-0.273
					c0.25,0,0.395,0.161,0.395,0.43c0,0.411-0.426,0.91-1.148,1.555v0.307h1.781v-0.445H18.549z"/>
				<path class="st1" d="M20.411,52.055c-0.123,0-0.215,0.023-0.322,0.073l0.054-0.56h0.963v-0.442h-1.421l-0.073,1.286l0.242,0.161
					c0.153-0.104,0.238-0.142,0.399-0.142c0.269,0,0.445,0.173,0.445,0.48c0,0.315-0.191,0.491-0.468,0.491
					c-0.25,0-0.434-0.123-0.588-0.273l-0.241,0.338c0.196,0.199,0.476,0.365,0.898,0.365c0.492,0,0.93-0.342,0.93-0.933
					C21.23,52.32,20.857,52.055,20.411,52.055z"/>
			</g>
			<g>
				<path class="st2" d="M37.634,38.46c-0.119,0.046-0.288,0.096-0.415,0.096c-0.419,0-0.561-0.257-0.561-0.703v-2.027h0.983v-0.492
					h-0.983v-1.018h-0.507l-0.073,1.018l-0.572,0.031v0.461h0.541v2.011c0,0.73,0.261,1.214,1.037,1.214
					c0.223,0,0.465-0.069,0.672-0.134L37.634,38.46z"/>
				<path class="st2" d="M40.257,35.239c-0.496,0-0.868,0.273-1.202,0.611l0.019-0.749v-1.459h-0.61v5.322h0.61v-2.635
					c0.365-0.368,0.622-0.557,0.995-0.557c0.484,0,0.687,0.288,0.687,0.971v2.22h0.611v-2.301
					C41.366,35.734,41.017,35.239,40.257,35.239z"/>
			</g>
			<g>
				<path class="st2" d="M34.685,19.016l-0.898,4.615c0.012-0.004,0.039-0.015,0.062-0.023c0.008-0.004,0.019-0.008,0.027-0.008
					c0.007-0.004,0.011-0.004,0.011-0.004c2.051-0.741,4.278-0.96,6.439-0.683c2.952,0.372,5.805,1.682,8.052,3.928
					c0.699,0.695,1.309,1.459,1.831,2.269c0.998,1.543,1.678,3.271,1.996,5.084l-3.013,11.261c-0.257,0.307-0.53,0.603-0.814,0.887
					c-0.545,0.549-1.133,1.037-1.743,1.474c-1.063,0.76-2.212,1.348-3.406,1.77c-1.198,0.426-2.438,0.68-3.694,0.768
					c-0.76,0.054-1.509,0.034-2.25-0.035c-4.27-0.396-8.163-2.757-10.459-6.477c-1.817-2.945-2.434-6.405-1.836-9.703
					c0.158-0.883,0.384-1.628,0.384-2.553c0-1.893-0.741-3.686-2.081-5.026c-2.78-2.78-7.425-2.78-10.205,0
					c-0.257,0.257-0.496,0.537-0.71,0.83c-0.135,0.184-0.262,0.376-0.377,0.572l-0.076,0.127c-0.626,1.09-0.937,2.342-0.922,3.598
					c0.027,1.854,0.776,3.617,2.085,4.93c2.699,2.696,7.134,2.78,9.941,0.25c0.081,2.342,0.572,4.68,1.751,6.873
					c-5.057,2.707-11.481,2.07-15.892-1.908c-0.176-0.157-0.353-0.322-0.522-0.491c-2.016-2.016-3.344-4.581-3.828-7.349
					l3.253-12.145L18.547,2.921l6.712,1.801l-7.391,13.078c3.164-0.073,6.319,0.925,8.881,2.918c0.78,0.606,1.486,1.294,2.119,2.054
					c2.054,2.465,3.187,5.571,3.187,8.816c0,0.733-0.058,1.455-0.17,2.165c-0.127,0.791-0.349,1.578-0.403,2.373
					c-0.1,1.524,0.291,3.068,1.163,4.389c1.363,2.061,3.686,3.256,6.124,3.191h0.019l0.062-0.004
					c1.755-0.069,3.487-0.764,4.803-2.081c1.34-1.34,2.081-3.133,2.081-5.026c0-1.897-0.74-3.69-2.081-5.03
					c-1.294-1.294-2.999-1.985-4.727-2.073c-1.889-0.092-3.698,0.568-5.068,1.786c-0.257-4.796-2.365-9.292-6.04-11.887l1.343-7.053
					h24.508l4.097,1.098l-1.497,5.583H34.685z"/>
				<path class="st2" d="M34.685,19.016l-0.898,4.615c0.012-0.004,0.039-0.015,0.062-0.023c0.008-0.004,0.019-0.008,0.027-0.008
					c0.007-0.004,0.011-0.004,0.011-0.004c2.051-0.741,4.278-0.96,6.439-0.683c2.952,0.372,5.805,1.682,8.052,3.928
					c0.699,0.695,1.309,1.459,1.831,2.269c0.998,1.543,1.678,3.271,1.996,5.084l-3.013,11.261c-0.257,0.307-0.53,0.603-0.814,0.887
					c-0.545,0.549-1.133,1.037-1.743,1.474c-1.063,0.76-2.212,1.348-3.406,1.77c-1.198,0.426-2.438,0.68-3.694,0.768
					c-0.76,0.054-1.509,0.034-2.25-0.035c-4.27-0.396-8.163-2.757-10.459-6.477c-1.817-2.945-2.434-6.405-1.836-9.703
					c0.158-0.883,0.384-1.628,0.384-2.553c0-1.893-0.741-3.686-2.081-5.026c-2.78-2.78-7.425-2.78-10.205,0
					c-0.257,0.257-0.496,0.537-0.71,0.83c-0.135,0.184-0.262,0.376-0.377,0.572l-0.076,0.127c-0.626,1.09-0.937,2.342-0.922,3.598
					c0.027,1.854,0.776,3.617,2.085,4.93c2.699,2.696,7.134,2.78,9.941,0.25c0.081,2.342,0.572,4.68,1.751,6.873
					c-5.057,2.707-11.481,2.07-15.892-1.908c-0.176-0.157-0.353-0.322-0.522-0.491c-2.016-2.016-3.344-4.581-3.828-7.349
					l3.253-12.145L18.547,2.921l6.712,1.801l-7.391,13.078c3.164-0.073,6.319,0.925,8.881,2.918c0.78,0.606,1.486,1.294,2.119,2.054
					c2.054,2.465,3.187,5.571,3.187,8.816c0,0.733-0.058,1.455-0.17,2.165c-0.127,0.791-0.349,1.578-0.403,2.373
					c-0.1,1.524,0.291,3.068,1.163,4.389c1.363,2.061,3.686,3.256,6.124,3.191h0.019l0.062-0.004
					c1.755-0.069,3.487-0.764,4.803-2.081c1.34-1.34,2.081-3.133,2.081-5.026c0-1.897-0.74-3.69-2.081-5.03
					c-1.294-1.294-2.999-1.985-4.727-2.073c-1.889-0.092-3.698,0.568-5.068,1.786c-0.257-4.796-2.365-9.292-6.04-11.887l1.343-7.053
					h24.508l4.097,1.098l-1.497,5.583H34.685z"/>
			</g>
		</g>
	</g>
</g>
</svg>
