<?xml version="1.0" encoding="utf-8"?>
<!-- Generator: Adobe Illustrator 26.5.0, SVG Export Plug-In . SVG Version: 6.00 Build 0)  -->
<svg version="1.1" id="Layer_1" xmlns="http://www.w3.org/2000/svg" xmlns:xlink="http://www.w3.org/1999/xlink" x="0px" y="0px"
	 viewBox="0 0 218.204 142.763" style="enable-background:new 0 0 218.204 142.763;" xml:space="preserve">
<style type="text/css">
	.st0{fill:#004098;}
</style>
<polygon class="st0" points="167.991,99.609 157.505,99.609 143.958,58.913 154.915,58.913 162.878,88.338 171.112,58.913 
	181.603,58.913 "/>
<path class="st0" d="M217.87,87.242c-1.195,4.246-3.454,7.451-6.772,9.61c-2.745,1.855-5.911,2.783-9.493,2.783
	c-5.622,0-10.004-1.548-13.145-4.649c-3.543-3.585-5.312-9.101-5.312-16.542c-0.044-4.338,0.887-8.191,2.785-11.56
	c3.012-5.312,7.991-7.971,14.939-7.971c4.649,0,8.454,1.331,11.422,3.99c3.939,3.592,5.91,9.308,5.91,17.152v1.995h-25.23v0.265
	c0.353,2.527,0.929,4.432,1.723,5.722c1.375,2.302,3.679,3.456,6.908,3.456c1.374,0,2.632-0.378,3.784-1.128
	c1.193-0.8,2.038-1.837,2.525-3.122h9.956V87.242z M208.287,75.318c-0.265-2.806-1.194-4.924-2.787-6.351
	c-1.328-1.115-2.878-1.672-4.65-1.672c-2.167,0-3.895,0.711-5.178,2.142c-1.238,1.384-1.992,3.344-2.256,5.881H208.287
	L208.287,75.318z"/>
<path class="st0" d="M103.737,67.296c-2.17,0-3.895,0.711-5.18,2.142c-1.242,1.384-1.99,3.344-2.259,5.881h14.874
	c-0.268-2.806-1.195-4.924-2.788-6.351C107.058,67.852,105.507,67.296,103.737,67.296L103.737,67.296z M29.923,0.01L0,111.685
	l115.975,31.078l29.92-111.677L29.923,0.01L29.923,0.01z M62.746,99.517L54.913,57.85h-0.066
	c-0.888,5.584-8.102,41.667-8.102,41.667h-9.894L22.513,46.285h11.286l8.166,38.068l7.302-38.068h11.09l7.83,38.068l8.369-38.068
	h10.823L72.971,99.517H62.746L62.746,99.517z M121.087,82.049h-25.23v0.265c0.353,2.527,0.929,4.432,1.727,5.722
	c1.371,2.302,3.671,3.456,6.902,3.456c1.375,0,2.635-0.378,3.783-1.128c1.197-0.8,2.037-1.837,2.527-3.122h9.959
	c-1.196,4.246-3.454,7.451-6.773,9.61c-2.744,1.855-5.908,2.783-9.496,2.783c-5.619,0-10.001-1.548-13.144-4.649
	c-3.541-3.585-5.312-9.101-5.312-16.542c-0.046-4.338,0.888-8.191,2.79-11.56c3.011-5.312,7.988-7.971,14.936-7.971
	c4.647,0,8.456,1.331,11.421,3.99c3.939,3.592,5.91,9.308,5.91,17.152L121.087,82.049L121.087,82.049z M126.421,63.121
	l-1.438-16.816h7.726l-1.436,16.816H126.421L126.421,63.121z"/>
</svg>
