<?xml version="1.0" encoding="utf-8"?>
<!-- Generator: Adobe Illustrator 26.5.0, SVG Export Plug-In . SVG Version: 6.00 Build 0)  -->
<svg version="1.1" id="ICON" xmlns="http://www.w3.org/2000/svg" xmlns:xlink="http://www.w3.org/1999/xlink" x="0px" y="0px"
	 viewBox="0 0 41.904 37.613" style="enable-background:new 0 0 41.904 37.613;" xml:space="preserve">
<style type="text/css">
	.st0{fill:none;stroke:#005EB8;stroke-width:2.5;stroke-linecap:round;stroke-linejoin:round;stroke-miterlimit:10;}
</style>
<path class="st0" d="M32.881,14.877V13.23c0-6.587-5.34-11.927-11.927-11.927l0,0c-6.587,0-11.927,5.34-11.927,11.927v1.647"/>
<path class="st0" d="M9.027,26.509H6.275c-2.772,0-5.02-2.247-5.02-5.02V18.92c0-2.772,2.247-5.02,5.02-5.02h2.752V26.509z"/>
<path class="st0" d="M32.881,13.9h2.752c2.772,0,5.02,2.247,5.02,5.02v2.569c0,2.772-2.247,5.02-5.02,5.02h-2.752V13.9z"/>
<path class="st0" d="M32.881,26.509v0.553c0,3.653-2.962,6.615-6.615,6.615h-1.333"/>
<circle class="st0" cx="22.281" cy="33.677" r="2.651"/>
<line class="st0" x1="17.344" y1="13.9" x2="17.344" y2="15.568"/>
<line class="st0" x1="24.564" y1="13.9" x2="24.564" y2="15.568"/>
<path class="st0" d="M24.564,20.917L24.564,20.917c0,1.289-1.045,2.333-2.333,2.333h-2.553c-1.289,0-2.333-1.045-2.333-2.333l0,0"/>
</svg>
